<svg width="46" height="46" viewBox="0 0 46 46" fill="none" xmlns="http://www.w3.org/2000/svg">
<rect x="2.99998" y="3" width="40" height="40" rx="20" fill="#002921" fill-opacity="0.13"/>
<g clip-path="url(#clip0_385_141)">
<path d="M26.0626 33C25.7705 32.9996 25.4888 32.8916 25.2714 32.6967C25.0539 32.5017 24.9159 32.2334 24.8838 31.9431C24.8133 31.361 24.532 30.8248 24.0931 30.4358C23.6542 30.0469 23.0881 29.8322 22.5017 29.8322C21.9152 29.8322 21.3491 30.0469 20.9102 30.4358C20.4713 30.8248 20.1901 31.361 20.1195 31.9431C20.0849 32.2562 19.9273 32.5427 19.6814 32.7395C19.4356 32.9364 19.1216 33.0275 18.8085 32.9929C18.4955 32.9582 18.209 32.8006 18.0121 32.5548C17.8153 32.3089 17.7241 31.9949 17.7588 31.6819C17.8935 30.5184 18.4511 29.4451 19.3256 28.6659C20.2001 27.8868 21.3304 27.4563 22.5017 27.4563C23.6729 27.4563 24.8032 27.8868 25.6777 28.6659C26.5522 29.4451 27.1099 30.5184 27.2445 31.6819C27.2617 31.8369 27.2482 31.9938 27.2047 32.1435C27.1612 32.2933 27.0887 32.4331 26.9912 32.5548C26.8937 32.6766 26.7732 32.7779 26.6366 32.8531C26.4999 32.9282 26.3498 32.9757 26.1948 32.9929C26.1509 32.9976 26.1067 33 26.0626 33ZM30.9448 25.8679C31.0998 25.8507 31.2499 25.8032 31.3866 25.7281C31.5232 25.6529 31.6437 25.5515 31.7412 25.4298C31.8387 25.3081 31.9112 25.1683 31.9547 25.0185C31.9982 24.8688 32.0117 24.7119 31.9945 24.5569C31.904 23.4457 31.4133 22.4051 30.6135 21.6283C29.8138 20.8515 28.7593 20.3914 27.6459 20.3333C27.331 20.3333 27.0289 20.4584 26.8062 20.6811C26.5835 20.9038 26.4584 21.2059 26.4584 21.5208C26.4584 21.8358 26.5835 22.1378 26.8062 22.3605C27.0289 22.5832 27.331 22.7083 27.6459 22.7083C28.1729 22.7686 28.6616 23.0135 29.0252 23.3997C29.3888 23.7859 29.6038 24.2884 29.6322 24.8181C29.6644 25.1087 29.8026 25.3772 30.0204 25.5722C30.2382 25.7672 30.5202 25.875 30.8126 25.875C30.8562 25.8749 30.8998 25.8726 30.9432 25.8679H30.9448ZM15.3679 24.8181C15.3963 24.2884 15.6114 23.7859 15.975 23.3997C16.3386 23.0135 16.8272 22.7686 17.3542 22.7083C17.6692 22.7083 17.9712 22.5832 18.1939 22.3605C18.4166 22.1378 18.5417 21.8358 18.5417 21.5208C18.5417 21.2059 18.4166 20.9038 18.1939 20.6811C17.9712 20.4584 17.6692 20.3333 17.3542 20.3333C16.2411 20.3918 15.187 20.8521 14.3876 21.6288C13.5882 22.4055 13.0977 23.4459 13.0072 24.5569C12.99 24.7119 13.0036 24.8688 13.047 25.0185C13.0905 25.1683 13.1631 25.3081 13.2605 25.4298C13.358 25.5515 13.4785 25.6529 13.6152 25.7281C13.7518 25.8032 13.9019 25.8507 14.0569 25.8679C14.1003 25.8726 14.1439 25.8749 14.1876 25.875C14.4799 25.875 14.762 25.7672 14.9798 25.5722C15.1976 25.3772 15.3358 25.1087 15.3679 24.8181ZM22.561 26.6667C23.1091 26.6667 23.6448 26.5042 24.1004 26.1997C24.5561 25.8952 24.9112 25.4625 25.1209 24.9562C25.3307 24.4499 25.3855 23.8928 25.2786 23.3553C25.1717 22.8178 24.9078 22.3241 24.5203 21.9366C24.1328 21.5491 23.6391 21.2852 23.1016 21.1782C22.5641 21.0713 22.007 21.1262 21.5007 21.3359C20.9944 21.5456 20.5616 21.9008 20.2572 22.3564C19.9527 22.8121 19.7902 23.3478 19.7902 23.8958C19.7902 24.6307 20.0821 25.3355 20.6018 25.8551C21.1214 26.3747 21.8262 26.6667 22.561 26.6667ZM27.311 19.5417C27.8591 19.5417 28.3948 19.3792 28.8504 19.0747C29.3061 18.7702 29.6612 18.3375 29.8709 17.8312C30.0807 17.3249 30.1355 16.7678 30.0286 16.2303C29.9217 15.6928 29.6578 15.1991 29.2703 14.8116C28.8828 14.4241 28.3891 14.1602 27.8516 14.0532C27.3141 13.9463 26.757 14.0012 26.2507 14.2109C25.7444 14.4206 25.3116 14.7758 25.0072 15.2314C24.7027 15.6871 24.5402 16.2228 24.5402 16.7708C24.5402 17.1347 24.6119 17.495 24.7511 17.8312C24.8904 18.1674 25.0945 18.4728 25.3518 18.7301C25.6091 18.9874 25.9145 19.1915 26.2507 19.3308C26.5869 19.47 26.9472 19.5417 27.311 19.5417ZM17.811 19.5417C18.3591 19.5417 18.8948 19.3792 19.3504 19.0747C19.8061 18.7702 20.1612 18.3375 20.3709 17.8312C20.5807 17.3249 20.6355 16.7678 20.5286 16.2303C20.4217 15.6928 20.1578 15.1991 19.7703 14.8116C19.3828 14.4241 18.8891 14.1602 18.3516 14.0532C17.8141 13.9463 17.257 14.0012 16.7507 14.2109C16.2444 14.4206 15.8116 14.7758 15.5072 15.2314C15.2027 15.6871 15.0402 16.2228 15.0402 16.7708C15.0402 17.5057 15.3321 18.2105 15.8518 18.7301C16.1091 18.9874 16.4145 19.1915 16.7507 19.3308C17.0869 19.47 17.4472 19.5417 17.811 19.5417Z" fill="#002921"/>
</g>
<rect x="2.99998" y="3" width="40" height="40" rx="20" stroke="#004D3F" stroke-opacity="0.3" stroke-width="6"/>
<defs>
<clipPath id="clip0_385_141">
<rect width="19" height="19" fill="white" transform="translate(13 14)"/>
</clipPath>
</defs>
</svg>
