<svg width="46" height="46" viewBox="0 0 46 46" fill="none" xmlns="http://www.w3.org/2000/svg">
<rect width="46" height="46" rx="23" fill="#051650"/>
<path d="M16.5454 27.712C17.0894 27.28 17.3374 27.08 17.2894 27.112C18.8574 25.816 20.0894 24.752 20.9854 23.92C21.8974 23.088 22.6654 22.216 23.2894 21.304C23.9134 20.392 24.2254 19.504 24.2254 18.64C24.2254 17.984 24.0734 17.472 23.7694 17.104C23.4654 16.736 23.0094 16.552 22.4014 16.552C21.7934 16.552 21.3134 16.784 20.9614 17.248C20.6254 17.696 20.4574 18.336 20.4574 19.168H16.4974C16.5294 17.808 16.8174 16.672 17.3614 15.76C17.9214 14.848 18.6494 14.176 19.5454 13.744C20.4574 13.312 21.4654 13.096 22.5694 13.096C24.4734 13.096 25.9054 13.584 26.8654 14.56C27.8414 15.536 28.3294 16.808 28.3294 18.376C28.3294 20.088 27.7454 21.68 26.5774 23.152C25.4094 24.608 23.9214 26.032 22.1134 27.424H28.5934V30.76H16.5454V27.712Z" fill="white"/>
</svg>
