<svg width="46" height="46" viewBox="0 0 46 46" fill="none" xmlns="http://www.w3.org/2000/svg">
<rect width="46" height="46" rx="23" fill="#051650"/>
<path d="M17.0506 18.424C17.1146 16.712 17.6746 15.392 18.7306 14.464C19.7866 13.536 21.2186 13.072 23.0266 13.072C24.2266 13.072 25.2506 13.28 26.0986 13.696C26.9626 14.112 27.6106 14.68 28.0426 15.4C28.4906 16.12 28.7146 16.928 28.7146 17.824C28.7146 18.88 28.4506 19.744 27.9226 20.416C27.3946 21.072 26.7786 21.52 26.0746 21.76V21.856C26.9866 22.16 27.7066 22.664 28.2346 23.368C28.7626 24.072 29.0266 24.976 29.0266 26.08C29.0266 27.072 28.7946 27.952 28.3306 28.72C27.8826 29.472 27.2186 30.064 26.3386 30.496C25.4746 30.928 24.4426 31.144 23.2426 31.144C21.3226 31.144 19.7866 30.672 18.6346 29.728C17.4986 28.784 16.8986 27.36 16.8346 25.456H20.8186C20.8346 26.16 21.0346 26.72 21.4186 27.136C21.8026 27.536 22.3626 27.736 23.0986 27.736C23.7226 27.736 24.2026 27.56 24.5386 27.208C24.8906 26.84 25.0666 26.36 25.0666 25.768C25.0666 25 24.8186 24.448 24.3226 24.112C23.8426 23.76 23.0666 23.584 21.9946 23.584H21.2266V20.248H21.9946C22.8106 20.248 23.4666 20.112 23.9626 19.84C24.4746 19.552 24.7306 19.048 24.7306 18.328C24.7306 17.752 24.5706 17.304 24.2506 16.984C23.9306 16.664 23.4906 16.504 22.9306 16.504C22.3226 16.504 21.8666 16.688 21.5626 17.056C21.2746 17.424 21.1066 17.88 21.0586 18.424H17.0506Z" fill="white"/>
</svg>
