<svg width="46" height="46" viewBox="0 0 46 46" fill="none" xmlns="http://www.w3.org/2000/svg">
<rect width="46" height="46" rx="23" fill="#051650"/>
<path d="M28.8988 17.056H21.4108V20.368C21.7308 20.016 22.1788 19.728 22.7548 19.504C23.3308 19.28 23.9548 19.168 24.6268 19.168C25.8268 19.168 26.8188 19.44 27.6028 19.984C28.4028 20.528 28.9868 21.232 29.3548 22.096C29.7228 22.96 29.9068 23.896 29.9068 24.904C29.9068 26.776 29.3788 28.264 28.3228 29.368C27.2668 30.456 25.7788 31 23.8588 31C22.5788 31 21.4668 30.784 20.5228 30.352C19.5788 29.904 18.8508 29.288 18.3388 28.504C17.8268 27.72 17.5468 26.816 17.4988 25.792H21.5068C21.6028 26.288 21.8348 26.704 22.2028 27.04C22.5708 27.36 23.0748 27.52 23.7148 27.52C24.4668 27.52 25.0268 27.28 25.3948 26.8C25.7628 26.32 25.9468 25.68 25.9468 24.88C25.9468 24.096 25.7548 23.496 25.3708 23.08C24.9868 22.664 24.4268 22.456 23.6908 22.456C23.1468 22.456 22.6988 22.592 22.3468 22.864C21.9948 23.12 21.7628 23.464 21.6508 23.896H17.6908V13.456H28.8988V17.056Z" fill="white"/>
</svg>
