<svg width="46" height="46" viewBox="0 0 46 46" fill="none" xmlns="http://www.w3.org/2000/svg">
<rect width="46" height="46" rx="23" fill="#051650"/>
<path d="M25.1956 18.208C25.0676 17.616 24.8436 17.176 24.5236 16.888C24.2036 16.584 23.7476 16.432 23.1556 16.432C22.2436 16.432 21.5876 16.832 21.1876 17.632C20.7876 18.416 20.5796 19.664 20.5636 21.376C20.9156 20.816 21.4196 20.376 22.0756 20.056C22.7476 19.736 23.4836 19.576 24.2836 19.576C25.8516 19.576 27.1076 20.072 28.0516 21.064C29.0116 22.056 29.4916 23.44 29.4916 25.216C29.4916 26.384 29.2516 27.408 28.7716 28.288C28.3076 29.168 27.6196 29.856 26.7076 30.352C25.8116 30.848 24.7476 31.096 23.5156 31.096C21.0516 31.096 19.3396 30.328 18.3796 28.792C17.4196 27.24 16.9396 25.016 16.9396 22.12C16.9396 19.08 17.4436 16.824 18.4516 15.352C19.4756 13.864 21.1076 13.12 23.3476 13.12C24.5476 13.12 25.5556 13.36 26.3716 13.84C27.2036 14.304 27.8276 14.92 28.2436 15.688C28.6756 16.456 28.9316 17.296 29.0116 18.208H25.1956ZM23.2996 22.816C22.6116 22.816 22.0356 23.024 21.5716 23.44C21.1236 23.84 20.8996 24.416 20.8996 25.168C20.8996 25.936 21.1076 26.536 21.5236 26.968C21.9556 27.4 22.5636 27.616 23.3476 27.616C24.0516 27.616 24.6036 27.408 25.0036 26.992C25.4196 26.56 25.6276 25.976 25.6276 25.24C25.6276 24.488 25.4276 23.896 25.0276 23.464C24.6276 23.032 24.0516 22.816 23.2996 22.816Z" fill="white"/>
</svg>
