<svg width="46" height="46" viewBox="0 0 46 46" fill="none" xmlns="http://www.w3.org/2000/svg">
<rect width="46" height="46" rx="23" fill="#051650"/>
<path d="M19.2709 21.592C17.7669 20.792 17.0149 19.536 17.0149 17.824C17.0149 16.96 17.2389 16.176 17.6869 15.472C18.1349 14.752 18.8149 14.184 19.7269 13.768C20.6389 13.336 21.7589 13.12 23.0869 13.12C24.4149 13.12 25.5269 13.336 26.4229 13.768C27.3349 14.184 28.0149 14.752 28.4629 15.472C28.9109 16.176 29.1349 16.96 29.1349 17.824C29.1349 18.688 28.9269 19.44 28.5109 20.08C28.1109 20.72 27.5669 21.224 26.8789 21.592C27.7429 22.008 28.4069 22.584 28.8709 23.32C29.3349 24.04 29.5669 24.888 29.5669 25.864C29.5669 27 29.2789 27.984 28.7029 28.816C28.1269 29.632 27.3429 30.256 26.3509 30.688C25.3749 31.12 24.2869 31.336 23.0869 31.336C21.8869 31.336 20.7909 31.12 19.7989 30.688C18.8229 30.256 18.0469 29.632 17.4709 28.816C16.8949 27.984 16.6069 27 16.6069 25.864C16.6069 24.872 16.8389 24.016 17.3029 23.296C17.7669 22.56 18.4229 21.992 19.2709 21.592ZM25.1509 18.448C25.1509 17.792 24.9589 17.288 24.5749 16.936C24.2069 16.568 23.7109 16.384 23.0869 16.384C22.4629 16.384 21.9589 16.568 21.5749 16.936C21.2069 17.304 21.0229 17.816 21.0229 18.472C21.0229 19.096 21.2149 19.592 21.5989 19.96C21.9829 20.312 22.4789 20.488 23.0869 20.488C23.6949 20.488 24.1909 20.304 24.5749 19.936C24.9589 19.568 25.1509 19.072 25.1509 18.448ZM23.0869 23.368C22.3349 23.368 21.7269 23.576 21.2629 23.992C20.7989 24.392 20.5669 24.952 20.5669 25.672C20.5669 26.344 20.7909 26.896 21.2389 27.328C21.7029 27.76 22.3189 27.976 23.0869 27.976C23.8549 27.976 24.4549 27.76 24.8869 27.328C25.3349 26.896 25.5589 26.344 25.5589 25.672C25.5589 24.968 25.3269 24.408 24.8629 23.992C24.4149 23.576 23.8229 23.368 23.0869 23.368Z" fill="white"/>
</svg>
