<svg width="46" height="46" viewBox="0 0 46 46" fill="none" xmlns="http://www.w3.org/2000/svg">
<rect width="46" height="46" rx="23" fill="#051650"/>
<path d="M21.2054 25.864C21.4454 27.128 22.1814 27.76 23.4134 27.76C24.2614 27.76 24.8614 27.384 25.2134 26.632C25.5654 25.88 25.7414 24.656 25.7414 22.96C25.3894 23.456 24.9094 23.84 24.3014 24.112C23.6934 24.384 23.0134 24.52 22.2614 24.52C21.2374 24.52 20.3254 24.312 19.5254 23.896C18.7254 23.464 18.0934 22.832 17.6294 22C17.1814 21.152 16.9574 20.128 16.9574 18.928C16.9574 17.744 17.1974 16.712 17.6774 15.832C18.1734 14.952 18.8694 14.272 19.7654 13.792C20.6774 13.312 21.7494 13.072 22.9814 13.072C25.3494 13.072 27.0054 13.808 27.9494 15.28C28.8934 16.752 29.3654 18.92 29.3654 21.784C29.3654 23.864 29.1734 25.584 28.7894 26.944C28.4214 28.288 27.7894 29.312 26.8934 30.016C26.0134 30.72 24.8054 31.072 23.2694 31.072C22.0534 31.072 21.0134 30.832 20.1494 30.352C19.3014 29.872 18.6454 29.24 18.1814 28.456C17.7334 27.672 17.4774 26.808 17.4134 25.864H21.2054ZM23.1974 21.28C23.8694 21.28 24.4054 21.08 24.8054 20.68C25.2054 20.264 25.4054 19.704 25.4054 19C25.4054 18.232 25.1974 17.64 24.7814 17.224C24.3654 16.808 23.8054 16.6 23.1014 16.6C22.3974 16.6 21.8374 16.816 21.4214 17.248C21.0214 17.664 20.8214 18.24 20.8214 18.976C20.8214 19.664 21.0214 20.224 21.4214 20.656C21.8374 21.072 22.4294 21.28 23.1974 21.28Z" fill="white"/>
</svg>
