<svg width="48" height="48" viewBox="0 0 48 48" fill="none" xmlns="http://www.w3.org/2000/svg">
<rect width="48" height="48" fill="white"/>
<g clip-path="url(#clip0_389_180)">
<path d="M24 31.3333C22.5496 31.3333 21.1318 30.9032 19.9258 30.0974C18.7198 29.2917 17.7799 28.1463 17.2249 26.8063C16.6698 25.4664 16.5246 23.9919 16.8076 22.5693C17.0905 21.1468 17.7889 19.8401 18.8145 18.8146C19.8401 17.789 21.1468 17.0905 22.5693 16.8076C23.9919 16.5246 25.4663 16.6698 26.8063 17.2249C28.1463 17.7799 29.2916 18.7199 30.0974 19.9258C30.9032 21.1318 31.3333 22.5496 31.3333 24C31.3333 25.9449 30.5607 27.8102 29.1854 29.1855C27.8102 30.5607 25.9449 31.3333 24 31.3333ZM12.4188 31.3333H3.83332C3.34709 31.3333 2.88077 31.1402 2.53696 30.7964C2.19314 30.4525 1.99998 29.9862 1.99998 29.5C2.01736 26.8675 2.97481 24.3279 4.69967 22.3392C6.42453 20.3504 8.80325 19.0434 11.4068 18.654C11.7094 18.6116 12.0177 18.6455 12.3038 18.7526C12.5899 18.8597 12.8447 19.0365 13.0451 19.2672C13.2455 19.4978 13.385 19.7748 13.4511 20.073C13.5172 20.3713 13.5077 20.6813 13.4235 20.975C13.1425 21.9588 13 22.9769 13 24C13.0005 25.6312 13.3677 27.2415 14.0743 28.7117C14.2072 28.9907 14.2674 29.2989 14.2493 29.6074C14.2312 29.916 14.1354 30.215 13.9707 30.4765C13.8061 30.7381 13.578 30.9539 13.3076 31.1037C13.0373 31.2535 12.7334 31.3325 12.4243 31.3333H12.4188ZM33.1667 46H14.8333C14.3471 46 13.8808 45.8069 13.537 45.463C13.1931 45.1192 13 44.6529 13 44.1667C13 41.2493 14.1589 38.4514 16.2218 36.3885C18.2847 34.3256 21.0826 33.1667 24 33.1667C26.9174 33.1667 29.7153 34.3256 31.7782 36.3885C33.8411 38.4514 35 41.2493 35 44.1667C35 44.6529 34.8068 45.1192 34.463 45.463C34.1192 45.8069 33.6529 46 33.1667 46ZM35 16.6667C33.5496 16.6667 32.1318 16.2366 30.9258 15.4308C29.7198 14.625 28.7799 13.4797 28.2249 12.1397C27.6698 10.7997 27.5246 9.3252 27.8076 7.90267C28.0905 6.48015 28.789 5.17347 29.8145 4.14789C30.8401 3.1223 32.1468 2.42387 33.5693 2.14091C34.9919 1.85795 36.4663 2.00318 37.8063 2.55822C39.1463 3.11326 40.2916 4.05319 41.0974 5.25915C41.9032 6.46512 42.3333 7.88294 42.3333 9.33334C42.3333 11.2783 41.5607 13.1435 40.1854 14.5188C38.8102 15.8941 36.9449 16.6667 35 16.6667ZM13 16.6667C11.5496 16.6667 10.1318 16.2366 8.9258 15.4308C7.71984 14.625 6.77991 13.4797 6.22487 12.1397C5.66983 10.7997 5.5246 9.3252 5.80756 7.90267C6.09052 6.48015 6.78895 5.17347 7.81454 4.14789C8.84012 3.1223 10.1468 2.42387 11.5693 2.14091C12.9919 1.85795 14.4663 2.00318 15.8063 2.55822C17.1463 3.11326 18.2916 4.05319 19.0974 5.25915C19.9032 6.46512 20.3333 7.88294 20.3333 9.33334C20.3333 11.2783 19.5607 13.1435 18.1854 14.5188C16.8102 15.8941 14.9449 16.6667 13 16.6667ZM44.1667 31.3333H35.5812C35.2721 31.3325 34.9682 31.2535 34.6978 31.1037C34.4275 30.9539 34.1994 30.7381 34.0347 30.4765C33.8701 30.215 33.7743 29.916 33.7562 29.6074C33.738 29.2989 33.7982 28.9907 33.9312 28.7117C34.6359 27.241 35.0012 25.6308 35 24C34.997 22.9765 34.8514 21.9583 34.5673 20.975C34.4826 20.6805 34.4731 20.3695 34.5396 20.0704C34.6061 19.7712 34.7465 19.4935 34.948 19.2627C35.1495 19.0318 35.4057 18.8551 35.6931 18.7488C35.9805 18.6425 36.2899 18.6099 36.5932 18.654C39.1967 19.0434 41.5754 20.3504 43.3003 22.3392C45.0252 24.3279 45.9826 26.8675 46 29.5C46 29.9862 45.8068 30.4525 45.463 30.7964C45.1192 31.1402 44.6529 31.3333 44.1667 31.3333Z" fill="#004D3F"/>
</g>
<defs>
<clipPath id="clip0_389_180">
<rect width="44" height="44" fill="white" transform="translate(1.99998 2)"/>
</clipPath>
</defs>
</svg>
