<svg width="41" height="40" viewBox="0 0 41 40" fill="none" xmlns="http://www.w3.org/2000/svg">
<rect width="40" height="40" transform="translate(0.666626)" fill="white"/>
<g clip-path="url(#clip0_386_175)">
<path d="M20.6666 26C19.4799 26 18.3199 25.6481 17.3332 24.9888C16.3465 24.3295 15.5775 23.3925 15.1233 22.2961C14.6692 21.1997 14.5504 19.9933 14.7819 18.8295C15.0134 17.6656 15.5849 16.5965 16.424 15.7574C17.2631 14.9182 18.3322 14.3468 19.4961 14.1153C20.66 13.8838 21.8664 14.0026 22.9627 14.4567C24.0591 14.9109 24.9962 15.6799 25.6554 16.6666C26.3147 17.6533 26.6666 18.8133 26.6666 20C26.6666 21.5913 26.0345 23.1174 24.9093 24.2426C23.784 25.3679 22.2579 26 20.6666 26ZM11.1911 26H4.16663C3.7688 26 3.38727 25.842 3.10597 25.5607C2.82466 25.2794 2.66663 24.8978 2.66663 24.5C2.68084 22.3462 3.46421 20.2683 4.87546 18.6411C6.28671 17.014 8.23293 15.9446 10.3631 15.626C10.6107 15.5913 10.8629 15.619 11.097 15.7067C11.3311 15.7943 11.5396 15.939 11.7035 16.1277C11.8675 16.3163 11.9817 16.543 12.0357 16.787C12.0898 17.0311 12.082 17.2847 12.0131 17.525C11.7833 18.3299 11.6666 19.1629 11.6666 20C11.6671 21.3346 11.9675 22.6521 12.5456 23.855C12.6544 24.0833 12.7036 24.3354 12.6888 24.5879C12.674 24.8403 12.5956 25.085 12.4609 25.299C12.3262 25.513 12.1395 25.6895 11.9183 25.8121C11.6971 25.9346 11.4485 25.9993 11.1956 26H11.1911ZM28.1666 38H13.1666C12.7688 38 12.3873 37.842 12.106 37.5607C11.8247 37.2794 11.6666 36.8978 11.6666 36.5C11.6666 34.1131 12.6148 31.8239 14.3027 30.136C15.9905 28.4482 18.2797 27.5 20.6666 27.5C23.0536 27.5 25.3428 28.4482 27.0306 30.136C28.7184 31.8239 29.6666 34.1131 29.6666 36.5C29.6666 36.8978 29.5086 37.2794 29.2273 37.5607C28.946 37.842 28.5645 38 28.1666 38ZM29.6666 14C28.4799 14 27.3199 13.6481 26.3332 12.9888C25.3465 12.3295 24.5775 11.3925 24.1233 10.2961C23.6692 9.19975 23.5504 7.99335 23.7819 6.82946C24.0134 5.66558 24.5849 4.59648 25.424 3.75736C26.2631 2.91825 27.3322 2.3468 28.4961 2.11529C29.66 1.88378 30.8664 2.0026 31.9627 2.45673C33.0591 2.91085 33.9962 3.67989 34.6554 4.66658C35.3147 5.65328 35.6666 6.81332 35.6666 8C35.6666 9.5913 35.0345 11.1174 33.9093 12.2426C32.784 13.3679 31.2579 14 29.6666 14ZM11.6666 14C10.4799 14 9.3199 13.6481 8.3332 12.9888C7.34651 12.3295 6.57747 11.3925 6.12335 10.2961C5.66922 9.19975 5.5504 7.99335 5.78191 6.82946C6.01343 5.66558 6.58487 4.59648 7.42399 3.75736C8.2631 2.91825 9.3322 2.3468 10.4961 2.11529C11.66 1.88378 12.8664 2.0026 13.9627 2.45673C15.0591 2.91085 15.9962 3.67989 16.6554 4.66658C17.3147 5.65328 17.6666 6.81332 17.6666 8C17.6666 9.5913 17.0345 11.1174 15.9093 12.2426C14.784 13.3679 13.2579 14 11.6666 14ZM37.1666 26H30.1421C29.8892 25.9993 29.6406 25.9346 29.4194 25.8121C29.1982 25.6895 29.0116 25.513 28.8769 25.299C28.7422 25.085 28.6638 24.8403 28.6489 24.5879C28.6341 24.3354 28.6834 24.0833 28.7921 23.855C29.3687 22.6517 29.6676 21.3343 29.6666 20C29.6642 19.1626 29.545 18.3296 29.3126 17.525C29.2433 17.2841 29.2355 17.0296 29.2899 16.7848C29.3443 16.5401 29.4592 16.3129 29.6241 16.124C29.789 15.9351 29.9985 15.7906 30.2337 15.7036C30.4688 15.6166 30.722 15.5899 30.9701 15.626C33.1003 15.9446 35.0465 17.014 36.4578 18.6411C37.869 20.2683 38.6524 22.3462 38.6666 24.5C38.6666 24.8978 38.5086 25.2794 38.2273 25.5607C37.946 25.842 37.5645 26 37.1666 26Z" fill="#002921"/>
</g>
<defs>
<clipPath id="clip0_386_175">
<rect width="36" height="36" fill="white" transform="translate(2.66663 2)"/>
</clipPath>
</defs>
</svg>
