<svg width="25" height="25" viewBox="0 0 25 25" fill="none" xmlns="http://www.w3.org/2000/svg">
<rect width="25" height="25" fill="white"/>
<g clip-path="url(#clip0_447_169)">
<path d="M18.625 2.875H6.375C5.2151 2.87639 4.10311 3.33777 3.28294 4.15794C2.46277 4.97811 2.00139 6.0901 2 7.25L2 17.75C2.00139 18.9099 2.46277 20.0219 3.28294 20.8421C4.10311 21.6622 5.2151 22.1236 6.375 22.125H18.625C19.7849 22.1236 20.8969 21.6622 21.7171 20.8421C22.5372 20.0219 22.9986 18.9099 23 17.75V7.25C22.9986 6.0901 22.5372 4.97811 21.7171 4.15794C20.8969 3.33777 19.7849 2.87639 18.625 2.875ZM6.375 4.625H18.625C19.1489 4.62603 19.6606 4.78383 20.0941 5.07808C20.5276 5.37233 20.8631 5.78958 21.0575 6.27613L14.3567 12.9777C13.8636 13.4689 13.196 13.7447 12.5 13.7447C11.804 13.7447 11.1364 13.4689 10.6433 12.9777L3.9425 6.27613C4.13688 5.78958 4.47241 5.37233 4.90592 5.07808C5.33942 4.78383 5.85106 4.62603 6.375 4.625ZM18.625 20.375H6.375C5.67881 20.375 5.01113 20.0984 4.51884 19.6062C4.02656 19.1139 3.75 18.4462 3.75 17.75V8.5625L9.406 14.215C10.2273 15.0342 11.34 15.4943 12.5 15.4943C13.66 15.4943 14.7727 15.0342 15.594 14.215L21.25 8.5625V17.75C21.25 18.4462 20.9734 19.1139 20.4812 19.6062C19.9889 20.0984 19.3212 20.375 18.625 20.375Z" fill="#039484"/>
</g>
<defs>
<clipPath id="clip0_447_169">
<rect width="21" height="21" fill="white" transform="translate(2 2)"/>
</clipPath>
</defs>
</svg>
