<svg width="49" height="48" viewBox="0 0 49 48" fill="none" xmlns="http://www.w3.org/2000/svg">
<rect width="48" height="48" transform="translate(0.333313)" fill="white"/>
<g clip-path="url(#clip0_389_203)">
<path d="M46.3333 18.5C46.0958 19.8312 45.5668 21.0933 44.7841 22.196L28.682 43.866C28.1715 44.5255 27.5177 45.0603 26.77 45.43C26.0224 45.7996 25.2004 45.9943 24.3664 45.9994C23.5324 46.0045 22.7082 45.8199 21.956 45.4595C21.2039 45.0991 20.5435 44.5724 20.025 43.9192L3.84398 21.8C3.15663 20.804 2.6714 19.6828 2.41581 18.5H13.9071L22.621 41.1582C22.7536 41.5048 22.9883 41.8031 23.294 42.0135C23.5998 42.2239 23.9622 42.3365 24.3333 42.3365C24.7045 42.3365 25.0669 42.2239 25.3726 42.0135C25.6784 41.8031 25.913 41.5048 26.0456 41.1582L34.7595 18.5H46.3333ZM34.7833 14.8333H46.2545C45.9756 13.5929 45.4404 12.4245 44.6833 11.4032L39.9936 5.07084C39.3145 4.12164 38.419 3.34796 37.3812 2.81392C36.3434 2.27989 35.1933 2.00087 34.0261 2H29.9928L34.7833 14.8333ZM22.698 2L17.8231 14.8333H30.8618L26.0841 2H22.698ZM13.9016 14.8333L18.7746 2H14.5176C13.3604 1.99886 12.2194 2.2723 11.1884 2.79785C10.1574 3.32339 9.26578 4.08605 8.58681 5.02317L4.05298 10.9668C3.18546 12.1036 2.59648 13.4278 2.33331 14.8333H13.9016ZM30.8306 18.5H17.836L24.3333 35.3923L30.8306 18.5Z" fill="#004D3F"/>
</g>
<defs>
<clipPath id="clip0_389_203">
<rect width="44" height="44" fill="white" transform="translate(2.33331 2)"/>
</clipPath>
</defs>
</svg>
