<svg width="24" height="24" viewBox="0 0 24 24" fill="none" xmlns="http://www.w3.org/2000/svg">
<g opacity="0.8">
<path d="M12 3.8019C14.67 3.8019 14.9862 3.8119 16.041 3.86C16.6751 3.86776 17.3033 3.98421 17.8981 4.20429C18.3294 4.37064 18.7212 4.62547 19.0481 4.95238C19.375 5.27929 19.6298 5.67103 19.7962 6.10238C20.0163 6.6972 20.1327 7.32535 20.1405 7.95952C20.1881 9.01428 20.1986 9.33047 20.1986 12.0005C20.1986 14.6705 20.1886 14.9867 20.1405 16.0414C20.1327 16.6756 20.0163 17.3038 19.7962 17.8986C19.6298 18.3299 19.375 18.7217 19.0481 19.0486C18.7212 19.3755 18.3294 19.6303 17.8981 19.7967C17.3033 20.0167 16.6751 20.1332 16.041 20.1409C14.9867 20.1886 14.6705 20.199 12 20.199C9.32952 20.199 9.01333 20.189 7.95905 20.1409C7.32487 20.1332 6.69672 20.0167 6.1019 19.7967C5.67055 19.6303 5.27881 19.3755 4.95191 19.0486C4.625 18.7217 4.37016 18.3299 4.20381 17.8986C3.98373 17.3038 3.86728 16.6756 3.85952 16.0414C3.8119 14.9867 3.80143 14.6705 3.80143 12.0005C3.80143 9.33047 3.81143 9.01428 3.85952 7.95952C3.86728 7.32535 3.98373 6.6972 4.20381 6.10238C4.37016 5.67103 4.625 5.27929 4.95191 4.95238C5.27881 4.62547 5.67055 4.37064 6.1019 4.20429C6.69672 3.98421 7.32487 3.86776 7.95905 3.86C9.01381 3.81238 9.33 3.8019 12 3.8019ZM12 2C9.28571 2 8.94381 2.01143 7.87714 2.06C7.04717 2.07651 6.226 2.23366 5.44857 2.52476C4.78166 2.77603 4.17762 3.16979 3.67857 3.67857C3.16933 4.1778 2.77524 4.78219 2.52381 5.44952C2.2327 6.22695 2.07556 7.04812 2.05905 7.87809C2.01143 8.94381 2 9.28571 2 12C2 14.7143 2.01143 15.0562 2.06 16.1229C2.07651 16.9528 2.23366 17.774 2.52476 18.5514C2.77591 19.2187 3.16968 19.8231 3.67857 20.3224C4.17789 20.8313 4.78228 21.225 5.44952 21.4762C6.22695 21.7673 7.04812 21.9244 7.8781 21.9409C8.94476 21.9886 9.28524 22.0009 12.001 22.0009C14.7167 22.0009 15.0571 21.9895 16.1238 21.9409C16.9538 21.9244 17.775 21.7673 18.5524 21.4762C19.2165 21.2188 19.8195 20.8256 20.323 20.3218C20.8264 19.818 21.2192 19.2147 21.4762 18.5505C21.7673 17.773 21.9244 16.9519 21.941 16.1219C21.9886 15.0562 22 14.7143 22 12C22 9.28571 21.9886 8.94381 21.94 7.87714C21.9235 7.04716 21.7663 6.226 21.4752 5.44857C21.2241 4.78132 20.8303 4.17694 20.3214 3.67762C19.8221 3.16872 19.2177 2.77496 18.5505 2.52381C17.773 2.2327 16.9519 2.07556 16.1219 2.05905C15.0562 2.01143 14.7143 2 12 2Z" fill="#090914"/>
<path d="M12.0021 6.86719C10.9864 6.86719 9.99356 7.16836 9.14908 7.73263C8.30459 8.2969 7.64639 9.09891 7.25772 10.0373C6.86905 10.9756 6.76735 12.0081 6.9655 13.0043C7.16364 14.0004 7.65272 14.9154 8.3709 15.6336C9.08908 16.3518 10.0041 16.8408 11.0002 17.039C11.9964 17.2371 13.0289 17.1354 13.9672 16.7468C14.9056 16.3581 15.7076 15.6999 16.2719 14.8554C16.8361 14.0109 17.1373 13.0181 17.1373 12.0024C17.1373 10.6405 16.5963 9.33431 15.6332 8.37126C14.6702 7.40822 13.364 6.86719 12.0021 6.86719ZM12.0021 15.3358C11.3428 15.3358 10.6983 15.1403 10.1502 14.774C9.602 14.4077 9.17475 13.8871 8.92246 13.278C8.67017 12.6689 8.60416 11.9987 8.73278 11.3521C8.86139 10.7055 9.17886 10.1116 9.64504 9.6454C10.1112 9.17923 10.7052 8.86176 11.3518 8.73314C11.9984 8.60452 12.6686 8.67053 13.2777 8.92283C13.8868 9.17512 14.4074 9.60236 14.7736 10.1505C15.1399 10.6987 15.3354 11.3432 15.3354 12.0024C15.3354 12.8865 14.9842 13.7343 14.3591 14.3594C13.734 14.9846 12.8861 15.3358 12.0021 15.3358Z" fill="#090914"/>
<path d="M17.3391 7.86191C18.0018 7.86191 18.5391 7.32466 18.5391 6.66191C18.5391 5.99917 18.0018 5.46191 17.3391 5.46191C16.6764 5.46191 16.1391 5.99917 16.1391 6.66191C16.1391 7.32466 16.6764 7.86191 17.3391 7.86191Z" fill="#090914"/>
</g>
</svg>
