<svg width="25" height="25" viewBox="0 0 25 25" fill="none" xmlns="http://www.w3.org/2000/svg">
<g clip-path="url(#clip0_447_169)">
<rect width="25" height="25" fill="white"/>
<g opacity="0.8">
<path d="M12.4167 3.87698C15.1979 3.87698 15.5273 3.8874 16.626 3.9375C17.2866 3.94558 17.9409 4.06689 18.5605 4.29614C19.0098 4.46942 19.4179 4.73486 19.7584 5.0754C20.099 5.41593 20.3644 5.82399 20.5377 6.27331C20.767 6.89292 20.8882 7.54724 20.8964 8.20783C20.9459 9.30654 20.9569 9.63591 20.9569 12.4172C20.9569 15.1984 20.9465 15.5278 20.8964 16.6265C20.8882 17.2871 20.767 17.9415 20.5377 18.561C20.3644 19.0103 20.099 19.4184 19.7584 19.759C19.4179 20.0995 19.0098 20.3649 18.5605 20.5382C17.9409 20.7674 17.2866 20.8887 16.626 20.8968C15.5278 20.9465 15.1984 20.9573 12.4167 20.9573C9.63492 20.9573 9.30555 20.9469 8.20734 20.8968C7.54674 20.8887 6.89242 20.7674 6.27281 20.5382C5.82349 20.3649 5.41543 20.0995 5.07491 19.759C4.73438 19.4184 4.46892 19.0103 4.29564 18.561C4.06639 17.9415 3.94508 17.2871 3.937 16.6265C3.8874 15.5278 3.87649 15.1984 3.87649 12.4172C3.87649 9.63591 3.88691 9.30654 3.937 8.20783C3.94508 7.54724 4.06639 6.89292 4.29564 6.27331C4.46892 5.82399 4.73438 5.41593 5.07491 5.0754C5.41543 4.73486 5.82349 4.46942 6.27281 4.29614C6.89242 4.06689 7.54674 3.94558 8.20734 3.9375C9.30605 3.8879 9.63542 3.87698 12.4167 3.87698ZM12.4167 2C9.58928 2 9.23314 2.01191 8.12202 2.0625C7.25747 2.0797 6.40208 2.2434 5.59226 2.54662C4.89756 2.80836 4.26835 3.21853 3.74851 3.74851C3.21805 4.26854 2.80754 4.89811 2.54564 5.59325C2.2424 6.40307 2.07871 7.25846 2.06151 8.12301C2.01191 9.23314 2 9.58928 2 12.4167C2 15.2441 2.01191 15.6002 2.0625 16.7114C2.0797 17.5758 2.2434 18.4312 2.54663 19.241C2.80824 19.9361 3.21842 20.5657 3.74851 21.0858C4.26864 21.6159 4.89821 22.026 5.59325 22.2877C6.40307 22.5909 7.25846 22.7546 8.12302 22.7718C9.23413 22.8215 9.58879 22.8343 12.4177 22.8343C15.2466 22.8343 15.6011 22.8224 16.7123 22.7718C17.5769 22.7546 18.4323 22.5909 19.2421 22.2877C19.9339 22.0196 20.562 21.61 21.0865 21.0852C21.6108 20.5604 22.02 19.932 22.2877 19.2401C22.5909 18.4302 22.7546 17.5749 22.7719 16.7103C22.8215 15.6002 22.8333 15.2441 22.8333 12.4167C22.8333 9.58928 22.8215 9.23314 22.7708 8.12202C22.7536 7.25746 22.5899 6.40208 22.2867 5.59226C22.0251 4.89721 21.6149 4.26765 21.0848 3.74752C20.5647 3.21742 19.9351 2.80725 19.2401 2.54564C18.4302 2.2424 17.5749 2.07871 16.7103 2.06151C15.6002 2.01191 15.2441 2 12.4167 2Z" fill="#004D3F"/>
<path d="M12.4188 7.06999C11.3608 7.06999 10.3266 7.38371 9.44693 7.97149C8.56725 8.55927 7.88163 9.3947 7.47676 10.3722C7.0719 11.3496 6.96596 12.4251 7.17237 13.4628C7.37876 14.5004 7.88822 15.4535 8.63633 16.2017C9.38443 16.9498 10.3376 17.4592 11.3752 17.6656C12.4129 17.872 13.4884 17.766 14.4658 17.3613C15.4433 16.9564 16.2787 16.2707 16.8665 15.391C17.4542 14.5114 17.768 13.4772 17.768 12.4192C17.768 11.0005 17.2045 9.63991 16.2012 8.63673C15.1981 7.63356 13.8375 7.06999 12.4188 7.06999ZM12.4188 15.8915C11.7321 15.8915 11.0607 15.6878 10.4898 15.3063C9.91872 14.9247 9.47367 14.3824 9.21087 13.7479C8.94807 13.1134 8.87931 12.4153 9.01329 11.7418C9.14725 11.0682 9.47795 10.4496 9.96356 9.96396C10.4491 9.47837 11.0679 9.14767 11.7414 9.01369C12.415 8.87971 13.1131 8.94847 13.7476 9.21128C14.3821 9.47409 14.9243 9.91913 15.3058 10.4901C15.6874 11.0611 15.891 11.7325 15.891 12.4192C15.891 13.3401 15.5252 14.2232 14.874 14.8744C14.2229 15.5256 13.3397 15.8915 12.4188 15.8915Z" fill="#004D3F"/>
<path d="M17.9782 8.10616C18.6685 8.10616 19.2282 7.54652 19.2282 6.85616C19.2282 6.1658 18.6685 5.60616 17.9782 5.60616C17.2879 5.60616 16.7282 6.1658 16.7282 6.85616C16.7282 7.54652 17.2879 8.10616 17.9782 8.10616Z" fill="#004D3F"/>
</g>
</g>
<defs>
<clipPath id="clip0_447_169">
<rect width="25" height="25" fill="white"/>
</clipPath>
</defs>
</svg>
