<svg width="49" height="48" viewBox="0 0 49 48" fill="none" xmlns="http://www.w3.org/2000/svg">
<rect width="48" height="48" transform="translate(0.666626)" fill="white"/>
<g clip-path="url(#clip0_389_193)">
<path d="M14.3358 8.9171C12.4548 7.0361 9.37663 7.0361 7.49563 8.9171L3.92246 12.4903C3.11763 13.2951 2.66663 14.3859 2.66663 15.5226V36.8314C2.66663 41.8933 6.77146 45.9981 11.8333 45.9981H19.1666V15.5244C19.1666 14.3859 18.7138 13.2951 17.909 12.4903L14.3358 8.9171ZM11.8333 36.8333H9.99996C8.98796 36.8333 8.16663 36.0119 8.16663 34.9999C8.16663 33.9879 8.98796 33.1666 9.99996 33.1666H11.8333C12.8453 33.1666 13.6666 33.9879 13.6666 34.9999C13.6666 36.0119 12.8453 36.8333 11.8333 36.8333ZM11.8333 29.4999H9.99996C8.98796 29.4999 8.16663 28.6786 8.16663 27.6666C8.16663 26.6546 8.98796 25.8333 9.99996 25.8333H11.8333C12.8453 25.8333 13.6666 26.6546 13.6666 27.6666C13.6666 28.6786 12.8453 29.4999 11.8333 29.4999ZM11.8333 22.1666H9.99996C8.98796 22.1666 8.16663 21.3453 8.16663 20.3333C8.16663 19.3213 8.98796 18.4999 9.99996 18.4999H11.8333C12.8453 18.4999 13.6666 19.3213 13.6666 20.3333C13.6666 21.3453 12.8453 22.1666 11.8333 22.1666Z" fill="#004D3F"/>
<path d="M37.4999 2H31.9999C26.9381 2 22.8333 6.10483 22.8333 11.1667V46H37.4999C42.5618 46 46.6666 41.8952 46.6666 36.8333V11.1667C46.6666 6.10483 42.5618 2 37.4999 2ZM31.9999 36.8333H30.1666C29.1546 36.8333 28.3333 36.012 28.3333 35C28.3333 33.988 29.1546 33.1667 30.1666 33.1667H31.9999C33.0119 33.1667 33.8333 33.988 33.8333 35C33.8333 36.012 33.0119 36.8333 31.9999 36.8333ZM31.9999 29.5H30.1666C29.1546 29.5 28.3333 28.6787 28.3333 27.6667C28.3333 26.6547 29.1546 25.8333 30.1666 25.8333H31.9999C33.0119 25.8333 33.8333 26.6547 33.8333 27.6667C33.8333 28.6787 33.0119 29.5 31.9999 29.5ZM31.9999 22.1667H30.1666C29.1546 22.1667 28.3333 21.3453 28.3333 20.3333C28.3333 19.3213 29.1546 18.5 30.1666 18.5H31.9999C33.0119 18.5 33.8333 19.3213 33.8333 20.3333C33.8333 21.3453 33.0119 22.1667 31.9999 22.1667ZM31.9999 14.8333H30.1666C29.1546 14.8333 28.3333 14.012 28.3333 13C28.3333 11.988 29.1546 11.1667 30.1666 11.1667H31.9999C33.0119 11.1667 33.8333 11.988 33.8333 13C33.8333 14.012 33.0119 14.8333 31.9999 14.8333ZM39.3333 36.8333H37.4999C36.4879 36.8333 35.6666 36.012 35.6666 35C35.6666 33.988 36.4879 33.1667 37.4999 33.1667H39.3333C40.3453 33.1667 41.1666 33.988 41.1666 35C41.1666 36.012 40.3453 36.8333 39.3333 36.8333ZM39.3333 29.5H37.4999C36.4879 29.5 35.6666 28.6787 35.6666 27.6667C35.6666 26.6547 36.4879 25.8333 37.4999 25.8333H39.3333C40.3453 25.8333 41.1666 26.6547 41.1666 27.6667C41.1666 28.6787 40.3453 29.5 39.3333 29.5ZM39.3333 22.1667H37.4999C36.4879 22.1667 35.6666 21.3453 35.6666 20.3333C35.6666 19.3213 36.4879 18.5 37.4999 18.5H39.3333C40.3453 18.5 41.1666 19.3213 41.1666 20.3333C41.1666 21.3453 40.3453 22.1667 39.3333 22.1667ZM39.3333 14.8333H37.4999C36.4879 14.8333 35.6666 14.012 35.6666 13C35.6666 11.988 36.4879 11.1667 37.4999 11.1667H39.3333C40.3453 11.1667 41.1666 11.988 41.1666 13C41.1666 14.012 40.3453 14.8333 39.3333 14.8333Z" fill="#004D3F"/>
</g>
<defs>
<clipPath id="clip0_389_193">
<rect width="44" height="44" fill="white" transform="translate(2.66663 2)"/>
</clipPath>
</defs>
</svg>
