<svg width="25" height="25" viewBox="0 0 25 25" fill="none" xmlns="http://www.w3.org/2000/svg">
<g clip-path="url(#clip0_501_185)">
<path d="M11.3541 4.68751C11.6633 4.68737 11.9655 4.77893 12.2226 4.95061C12.4797 5.12229 12.6801 5.36637 12.7984 5.65197C12.9167 5.93756 12.9476 6.25184 12.8873 6.55503C12.8269 6.85822 12.678 7.13669 12.4594 7.35521L7.68227 12.1313C7.63377 12.1796 7.59529 12.2371 7.56903 12.3004C7.54277 12.3637 7.52926 12.4315 7.52926 12.5C7.52926 12.5685 7.54277 12.6363 7.56903 12.6996C7.59529 12.7629 7.63377 12.8204 7.68227 12.8688L12.4552 17.6448C12.7483 17.9378 12.913 18.3352 12.9131 18.7496C12.9132 19.1641 12.7487 19.5616 12.4557 19.8547C12.1627 20.1478 11.7653 20.3125 11.3509 20.3126C10.9364 20.3127 10.5389 20.1482 10.2458 19.8552L5.46873 15.0781C4.7862 14.3937 4.40291 13.4666 4.40291 12.5C4.40291 11.5334 4.7862 10.6063 5.46873 9.92188L10.2458 5.1448C10.3914 4.99935 10.5642 4.88409 10.7544 4.80561C10.9446 4.72714 11.1484 4.687 11.3541 4.68751Z" fill="#039484"/>
<path d="M18.6458 4.68751C18.955 4.68737 19.2572 4.77893 19.5143 4.95061C19.7714 5.12229 19.9717 5.36637 20.0901 5.65197C20.2084 5.93756 20.2393 6.25184 20.179 6.55503C20.1186 6.85822 19.9697 7.13669 19.751 7.35521L14.6021 12.5L19.7469 17.6448C20.04 17.9378 20.2047 18.3352 20.2048 18.7496C20.2049 19.1641 20.0404 19.5616 19.7474 19.8547C19.4544 20.1478 19.057 20.3125 18.6426 20.3126C18.2281 20.3127 17.8306 20.1482 17.5375 19.8552L11.2875 13.6052C11.1423 13.4601 11.0271 13.2878 10.9485 13.0982C10.87 12.9085 10.8295 12.7053 10.8295 12.5C10.8295 12.2947 10.87 12.0915 10.9485 11.9018C11.0271 11.7122 11.1423 11.5399 11.2875 11.3948L17.5375 5.1448C17.683 4.99935 17.8559 4.88409 18.0461 4.80561C18.2363 4.72714 18.4401 4.687 18.6458 4.68751Z" fill="#039484"/>
</g>
<defs>
<clipPath id="clip0_501_185">
<rect width="25" height="25" fill="white"/>
</clipPath>
</defs>
</svg>
