<svg width="25" height="25" viewBox="0 0 25 25" fill="none" xmlns="http://www.w3.org/2000/svg">
<g clip-path="url(#clip0_501_174)">
<path d="M13.6459 20.3125C13.3367 20.3126 13.0345 20.2211 12.7774 20.0494C12.5203 19.8777 12.3199 19.6336 12.2016 19.348C12.0833 19.0624 12.0524 18.7482 12.1127 18.445C12.1731 18.1418 12.322 17.8633 12.5406 17.6448L17.3177 12.8687C17.3662 12.8204 17.4047 12.7629 17.431 12.6996C17.4572 12.6363 17.4707 12.5685 17.4707 12.5C17.4707 12.4315 17.4572 12.3637 17.431 12.3004C17.4047 12.2371 17.3662 12.1796 17.3177 12.1312L12.5448 7.3552C12.2517 7.06222 12.087 6.6648 12.0869 6.25036C12.0868 5.83593 12.2513 5.43843 12.5443 5.14531C12.8373 4.85219 13.2347 4.68746 13.6491 4.68736C14.0636 4.68727 14.4611 4.85181 14.7542 5.14479L19.5313 9.92187C20.2138 10.6063 20.5971 11.5334 20.5971 12.5C20.5971 13.4666 20.2138 14.3937 19.5313 15.0781L14.7542 19.8552C14.6086 20.0006 14.4358 20.1159 14.2456 20.1944C14.0554 20.2729 13.8516 20.313 13.6459 20.3125Z" fill="#039484"/>
<path d="M6.35416 20.3125C6.04503 20.3126 5.7428 20.2211 5.48571 20.0494C5.22863 19.8777 5.02825 19.6336 4.90993 19.348C4.79161 19.0624 4.76067 18.7482 4.82102 18.445C4.88137 18.1418 5.03029 17.8633 5.24896 17.6448L10.3979 12.5L5.25312 7.3552C4.96 7.06222 4.79527 6.6648 4.79518 6.25036C4.79508 5.83593 4.95962 5.43843 5.2526 5.14531C5.54558 4.85219 5.94301 4.68746 6.35744 4.68736C6.77188 4.68727 7.16938 4.85181 7.4625 5.14479L13.7125 11.3948C13.8577 11.5399 13.9729 11.7122 14.0515 11.9018C14.13 12.0915 14.1705 12.2947 14.1705 12.5C14.1705 12.7053 14.13 12.9085 14.0515 13.0982C13.9729 13.2878 13.8577 13.4601 13.7125 13.6052L7.4625 19.8552C7.31696 20.0006 7.14414 20.1159 6.95394 20.1944C6.76374 20.2729 6.55991 20.313 6.35416 20.3125Z" fill="#039484"/>
</g>
<defs>
<clipPath id="clip0_501_174">
<rect width="25" height="25" fill="white"/>
</clipPath>
</defs>
</svg>
