<svg width="25" height="25" viewBox="0 0 25 25" fill="none" xmlns="http://www.w3.org/2000/svg">
<rect width="25" height="25" fill="white"/>
<g clip-path="url(#clip0_466_210)">
<path d="M21.6568 10.6328C19.7852 10.6328 18.0501 10.0343 16.6344 9.0175V16.3544C16.6344 20.0189 13.6532 22.9991 9.9896 22.9991C8.57385 22.9991 7.26047 22.5529 6.1816 21.7951C4.46835 20.592 3.34485 18.6023 3.34485 16.3544C3.34485 12.6899 6.32597 9.70875 9.99047 9.70875C10.295 9.70875 10.5925 9.73413 10.8856 9.7735V10.6284V13.459C10.6021 13.3706 10.3028 13.319 9.99047 13.319C8.31747 13.319 6.95597 14.6805 6.95597 16.3544C6.95597 17.5199 7.61747 18.5323 8.58347 19.0406C9.00435 19.262 9.48297 19.3889 9.99135 19.3889C11.6258 19.3889 12.9593 18.0886 13.0206 16.4681L13.0232 2H16.6335C16.6335 2.31325 16.6641 2.61863 16.7183 2.91613C16.973 4.29163 17.7893 5.472 18.9207 6.20963C19.7082 6.72325 20.648 7.02338 21.656 7.02338L21.6568 10.6328Z" fill="#039484"/>
</g>
<defs>
<clipPath id="clip0_466_210">
<rect width="21" height="21" fill="white" transform="translate(2 2)"/>
</clipPath>
</defs>
</svg>
