<svg width="25" height="25" viewBox="0 0 25 25" fill="none" xmlns="http://www.w3.org/2000/svg">
<rect width="25" height="25" fill="white"/>
<g clip-path="url(#clip0_466_220)">
<path fill-rule="evenodd" clip-rule="evenodd" d="M19.9051 5.052C17.9399 3.085 15.3271 2.00088 12.5437 2C6.80812 2 2.13999 6.66725 2.13737 12.4055C2.13649 14.2395 2.61599 16.0297 3.52687 17.6082L2.04987 23L7.56587 21.5528C9.08574 22.3823 10.7972 22.8189 12.5385 22.8198H12.5429C18.2776 22.8198 22.9466 18.1516 22.9492 12.4134C22.951 9.6335 21.8695 7.01812 19.9051 5.052ZM12.5437 21.0619H12.5402C10.988 21.0619 9.46637 20.6445 8.13812 19.8561L7.82224 19.6689L4.54887 20.5272L5.42299 17.3352L5.21737 17.008C4.35112 15.6308 3.89437 14.0391 3.89524 12.4055C3.89699 7.63675 7.77762 3.757 12.5481 3.757C14.8581 3.757 17.0299 4.65825 18.6626 6.29275C20.2954 7.92813 21.194 10.1008 21.1931 12.4116C21.1905 17.1821 17.3107 21.0619 12.5437 21.0619ZM17.288 14.5842C17.0281 14.4539 15.7497 13.8247 15.5109 13.7381C15.2729 13.6515 15.0996 13.6077 14.9255 13.8676C14.7514 14.1275 14.2544 14.7138 14.1021 14.8879C13.9507 15.0611 13.7985 15.083 13.5386 14.9526C13.2787 14.8223 12.4405 14.5484 11.4474 13.662C10.6747 12.9725 10.1524 12.1211 10.001 11.8604C9.84962 11.5996 9.98524 11.4596 10.1147 11.3301C10.232 11.2138 10.3746 11.0265 10.505 10.8743C10.6362 10.7238 10.6791 10.6153 10.7666 10.4411C10.8532 10.2679 10.8104 10.1156 10.7447 9.98525C10.6791 9.85575 10.1594 8.57563 9.94324 8.055C9.73237 7.5475 9.51799 7.61662 9.35787 7.60875C9.20649 7.60087 9.03324 7.6 8.85912 7.6C8.68587 7.6 8.40412 7.66475 8.16612 7.9255C7.92812 8.18625 7.25612 8.81538 7.25612 10.0946C7.25612 11.3748 8.18799 12.6111 8.31749 12.7844C8.44699 12.9576 10.1506 15.5844 12.759 16.7105C13.3794 16.9783 13.8641 17.1384 14.2412 17.2582C14.8642 17.456 15.4312 17.428 15.8792 17.3615C16.3789 17.2871 17.4175 16.7324 17.6345 16.1251C17.8515 15.5179 17.8515 14.9964 17.7859 14.8887C17.7211 14.7794 17.5479 14.7146 17.288 14.5842Z" fill="#039484"/>
</g>
<defs>
<clipPath id="clip0_466_220">
<rect width="21" height="21" fill="white" transform="translate(2 2)"/>
</clipPath>
</defs>
</svg>
