<svg width="25" height="25" viewBox="0 0 25 25" fill="none" xmlns="http://www.w3.org/2000/svg">
<rect width="25" height="25" fill="white"/>
<g clip-path="url(#clip0_466_174)">
<path d="M12.5 2C10.4233 2 8.39323 2.61581 6.66652 3.76957C4.9398 4.92332 3.59399 6.5632 2.79927 8.48182C2.00455 10.4004 1.79661 12.5116 2.20176 14.5484C2.6069 16.5853 3.60693 18.4562 5.07538 19.9246C6.54383 21.3931 8.41476 22.3931 10.4516 22.7982C12.4884 23.2034 14.5996 22.9955 16.5182 22.2007C18.4368 21.406 20.0767 20.0602 21.2304 18.3335C22.3842 16.6068 23 14.5767 23 12.5C22.997 9.71615 21.8898 7.04718 19.9213 5.0787C17.9528 3.11022 15.2839 2.00301 12.5 2ZM20.0661 8.125H17.2478C16.6169 6.66286 15.7861 5.29533 14.7794 4.0615C17.0076 4.66781 18.907 6.12779 20.0661 8.125ZM16.4375 12.5C16.4303 13.3909 16.2899 14.2757 16.021 15.125H8.979C8.71007 14.2757 8.56969 13.3909 8.5625 12.5C8.56969 11.6091 8.71007 10.7243 8.979 9.875H16.021C16.2899 10.7243 16.4303 11.6091 16.4375 12.5ZM9.68075 16.875H15.3193C14.5766 18.3413 13.6271 19.6932 12.5 20.8895C11.3725 19.6936 10.423 18.3415 9.68075 16.875ZM9.68075 8.125C10.4234 6.65874 11.3729 5.30676 12.5 4.1105C13.6276 5.30643 14.577 6.65846 15.3193 8.125H9.68075ZM10.225 4.0615C9.21671 5.29506 8.38452 6.66261 7.75225 8.125H4.93388C6.094 6.12688 7.99521 4.66679 10.225 4.0615ZM4.15338 9.875H7.1625C6.93567 10.7318 6.81807 11.6137 6.8125 12.5C6.81807 13.3863 6.93567 14.2683 7.1625 15.125H4.15338C3.61555 13.4163 3.61555 11.5837 4.15338 9.875ZM4.93388 16.875H7.75225C8.38452 18.3374 9.21671 19.7049 10.225 20.9385C7.99521 20.3332 6.094 18.8731 4.93388 16.875ZM14.7794 20.9385C15.7861 19.7047 16.6169 18.3371 17.2478 16.875H20.0661C18.907 18.8722 17.0076 20.3322 14.7794 20.9385ZM20.8466 15.125H17.8375C18.0643 14.2683 18.1819 13.3863 18.1875 12.5C18.1819 11.6137 18.0643 10.7318 17.8375 9.875H20.8449C21.3827 11.5837 21.3827 13.4163 20.8449 15.125H20.8466Z" fill="#039484"/>
</g>
<defs>
<clipPath id="clip0_466_174">
<rect width="21" height="21" fill="white" transform="translate(2 2)"/>
</clipPath>
</defs>
</svg>
