<svg width="24" height="24" viewBox="0 0 24 24" fill="none" xmlns="http://www.w3.org/2000/svg">
<g opacity="0.8">
<path fill-rule="evenodd" clip-rule="evenodd" d="M20.5875 4.47742C21.5375 4.74839 22.2875 5.52258 22.5375 6.50323C23 8.28387 23 12 23 12C23 12 23 15.7161 22.55 17.4968C22.2875 18.4903 21.55 19.2645 20.6 19.5226C18.875 20 12 20 12 20C12 20 5.125 20 3.4125 19.5226C2.4625 19.2516 1.7125 18.4774 1.4625 17.4968C1 15.7161 1 12 1 12C1 12 1 8.28387 1.45 6.50323C1.7125 5.50968 2.45 4.73548 3.4 4.47742C5.125 4 12 4 12 4C12 4 18.875 4 20.5875 4.47742ZM15.5 12L9.75 15.3807V8.61938L15.5 12Z" fill="#241815"/>
</g>
</svg>
